<?xml version="1.0" encoding="UTF-8"?>
<!-- Generator: Adobe Illustrator 27.0.0, SVG Export Plug-In . SVG Version: 6.00 Build 0)  -->
<svg xmlns="http://www.w3.org/2000/svg" xmlns:xlink="http://www.w3.org/1999/xlink" version="1.1" id="Layer_1" x="0px" y="0px" viewBox="0 0 2180.3 379.7" style="enable-background:new 0 0 2180.3 379.7;" xml:space="preserve">
<style type="text/css">
	.st0{fill:#FD3D00;}
</style>
<path class="st0" d="M412.8,103.2c45.1,0,69.1,31.6,69.1,72.6s-24,72.6-69.1,72.6s-69.1-31.6-69.1-72.6S367.7,103.2,412.8,103.2   M412.8,64.7c-66.4,0-111.1,50.7-111.1,111.1S346.4,287,412.8,287s111.1-50.7,111.1-111.1S479.2,64.7,412.8,64.7L412.8,64.7z   M1378.2,103.2c45.1,0,69.1,31.6,69.1,72.6s-24,72.6-69.1,72.6s-69.1-31.6-69.1-72.6S1333.1,103.2,1378.2,103.2 M1378.2,64.7  c-66.4,0-111.1,50.7-111.1,111.1S1311.8,287,1378.2,287s111.1-50.7,111.1-111.1S1444.6,64.7,1378.2,64.7L1378.2,64.7z M1880.8,0  c-17,0-28,12.5-28,28s11,28,28,28c17,0,28-12.5,28-28S1897.8,0,1880.8,0z M579.9,106.7h-37.7c-0.4,0-0.8-0.4-0.8-0.8V69  c0-0.4,0.3-0.8,0.8-0.8h36.9c0.4,0,0.8,0.4,0.8,0.8V106.7z M708.4,68.2h-6h-80.5v38.5h80.5v34.4c0,2.2,1.8,4.1,4.1,4.1h30.4  c2.2,0,4.1-1.8,4.1-4.1v-40.4C740.9,82.8,726.3,68.2,708.4,68.2z M666.8,245h-44.9V106.7h-42V245h-36.2c-2.2,0-4.1,1.8-4.1,4.1v30.4  c0,2.2,1.8,4.1,4.1,4.1h123.1c2.2,0,4.1-1.8,4.1-4.1V249C670.9,246.8,669.1,245,666.8,245z M1771.7,68.2h-40.4  c-17.9,0-32.5,14.5-32.5,32.5v4.8c-14.7-24.8-39.6-40.8-77-40.8c-66.4,0-107.6,50.7-107.6,111.1s41.2,111.1,107.6,111.1  c33.9,0,57.6-13.2,72.6-34.2v44.7v43.7h42v-43.7V106.7h35.3c2.2,0,4.1-1.8,4.1-4.1V72.3C1775.8,70,1774,68.2,1771.7,68.2z   M1625.3,248.5c-45.1,0-69.1-31.6-69.1-72.6s24-72.6,69.1-72.6s69.1,31.6,69.1,72.6S1670.4,248.5,1625.3,248.5z M1662.1,341.2h-35  h-35h-24.5v-34.4c0-2.2-1.8-4.1-4.1-4.1h-30.4c-2.2,0-4.1,1.8-4.1,4.1v34.4v6c0,17.9,14.6,32.5,32.5,32.5h6h24.5h35h35h32.4v-38.5  H1662.1z M1946.7,245h-44.9V106.7v-6c0-17.9-14.6-32.5-32.5-32.5h-50.9c-2.2,0-4.1,1.8-4.1,4.1v30.4c0,2.2,1.8,4.1,4.1,4.1h41.4V245  h-44.9c-2.2,0-4.1,1.8-4.1,4.1v30.4c0,2.2,1.8,4.1,4.1,4.1h131.9c2.2,0,4.1-1.8,4.1-4.1V249C1950.8,246.8,1949,245,1946.7,245z   M1237.3,206.5h-30.4c-2.2,0-4.1,1.8-4.1,4.1V245h-104.5V42h42.7c2.2,0,4.1-1.8,4.1-4.1V7.6c0-2.2-1.8-4.1-4.1-4.1h-42.7h-2.2h-38.5  h-2.2h-42.7c-2.2,0-4.1,1.8-4.1,4.1v30.4c0,2.2,1.8,4.1,4.1,4.1h42.7v203h-44.5c-2.2,0-4.1,1.8-4.1,4.1v30.4c0,2.2,1.8,4.1,4.1,4.1  h191.9h3.5h2.5c17.9,0,32.5-14.5,32.5-32.5v-40.4C1241.3,208.3,1239.5,206.5,1237.3,206.5z M878.3,64.7  c-66.4,0-111.1,50.7-111.1,111.1S811.9,287,878.3,287c45.4,0,80.6-23.6,98.3-57.9c1.2-2.3-0.5-5.1-3.1-5.1h-39.1  c-1.1,0-2.1,0.5-2.7,1.3c-11.6,14.4-29.5,23.2-53.3,23.2c-38.8,0-62-23.4-67.7-56H946h27.8h11.4c1.8,0,3.3-1.3,3.5-3.1  c0.5-4.5,0.8-9,0.8-13.6C989.4,115.4,944.7,64.7,878.3,64.7z M878.3,103.2c37.4,0,60.2,21.7,67,52.5h-134  C818,124.9,840.9,103.2,878.3,103.2z M271.9,190.7h-38.6c-1.3,0-2.5,0.8-3.1,1.9c-16.5,32.5-49.9,55.4-88.3,55.6  c-58.8,0-99.8-46.6-99.1-101.4C42.2,92.2,83.1,45.5,141.9,45.5c38.5,0.3,71.9,23.1,88.4,55.8c0.6,1.2,1.8,1.9,3.1,1.9H272  c2.5,0,4.2-2.5,3.3-4.8C255.1,44.6,202.1,5.7,141.9,6.9C64.4,6.9,0.4,65.2,0,146.9l0,0l0,0c0,0,0,0,0,0.1s0,0,0,0.1l0,0l0,0  c0.4,81.6,64.4,140,141.9,140v0c60,1.2,113.1-37.7,133.3-91.5C276.1,193.2,274.4,190.7,271.9,190.7z M2140.9,206.5  c-1.5,0-2.8,0.9-3.3,2.3c-9.2,23.8-29.7,39.7-61.7,39.7c-45.1,0-69.1-31.6-69.1-72.6s24-72.6,69.1-72.6c32,0,52.4,15.9,61.7,39.7  c0.5,1.4,1.8,2.3,3.3,2.3h35.9c2.4,0,4-2.3,3.4-4.5c-13.2-43.7-51.2-76-104.2-76c-66.4,0-111.1,50.7-111.1,111.1  s44.7,111.1,111.1,111.1c53,0,91-32.3,104.2-76c0.7-2.2-1-4.5-3.4-4.5L2140.9,206.5L2140.9,206.5z"></path>
</svg>
